HIERARCHY
ROOT Hips
{
	OFFSET 0.000000 88.474243 0.000000
	CHANNELS 6 Xposition Yposition Zposition Zrotation Yrotation Xrotation 
	JOINT Hips_Spine
	{
		OFFSET 0.000000 0.000000 0.000000
		CHANNELS 3 Zrotation Yrotation Xrotation
		JOINT Spine
		{
			OFFSET 0.005100 8.711998 -0.691000
			CHANNELS 3 Zrotation Yrotation Xrotation
			JOINT Spine1
			{
				OFFSET -0.009200 8.660301 -1.275000
				CHANNELS 3 Zrotation Yrotation Xrotation
				JOINT Spine2
				{
					OFFSET 0.006300 9.852501 -1.857000
					CHANNELS 3 Zrotation Yrotation Xrotation
					JOINT Spine2_Neck
					{
						OFFSET 0.000000 0.000000 0.000000
						CHANNELS 3 Zrotation Yrotation Xrotation
						JOINT Neck
						{
							OFFSET 0.016300 11.420799 -0.263300
							CHANNELS 3 Zrotation Yrotation Xrotation
							End Site #name: Head
							{
								OFFSET -0.019200 9.262405 2.362500
							}
						}
					}
					JOINT Spine2_LeftShoulder
					{
						OFFSET 0.000000 0.000000 0.000000
						CHANNELS 3 Zrotation Yrotation Xrotation
						JOINT LeftShoulder
						{
							OFFSET 5.616900 6.732201 -0.345700
							CHANNELS 3 Zrotation Yrotation Xrotation
							JOINT LeftArm
							{
								OFFSET 10.664888 -0.183372 -2.440700
								CHANNELS 3 Zrotation Yrotation Xrotation
								JOINT LeftForeArm
								{
									OFFSET 27.459126 0.000000 0.000000
									CHANNELS 3 Zrotation Yrotation Xrotation
									End Site #name: LeftHand
									{
										OFFSET 21.306858 0.000000 0.000000
									}
								}
							}
						}
					}
					JOINT Spine2_RightShoulder
					{
						OFFSET 0.000000 0.000000 0.000000
						CHANNELS 3 Zrotation Yrotation Xrotation
						JOINT RightShoulder
						{
							OFFSET -5.580300 6.737503 -0.344400
							CHANNELS 3 Zrotation Yrotation Xrotation
							JOINT RightArm
							{
								OFFSET -10.679335 -0.188484 -2.383900
								CHANNELS 3 Zrotation Yrotation Xrotation
								JOINT RightForeArm
								{
									OFFSET -27.503529 0.000000 0.000000
									CHANNELS 3 Zrotation Yrotation Xrotation
									End Site #name: RightHand
									{
										OFFSET -21.306808 0.000000 0.000000
									}
								}
							}
						}
					}
				}
			}
		}
	}
	JOINT Hips_LeftUpLeg
	{
		OFFSET 0.000000 0.000000 0.000000
		CHANNELS 3 Zrotation Yrotation Xrotation
		JOINT LeftUpLeg
		{
			OFFSET 6.857700 -6.739601 0.312100
			CHANNELS 3 Zrotation Yrotation Xrotation
			JOINT LeftLeg
			{
				OFFSET -0.367590 -34.731552 -4.572400
				CHANNELS 3 Zrotation Yrotation Xrotation
				End Site #name: LeftFoot
				{
					OFFSET 0.367590 -34.656704 -6.067400
				}
			}
		}
	}
	JOINT Hips_RightUpLeg
	{
		OFFSET 0.000000 0.000000 0.000000
		CHANNELS 3 Zrotation Yrotation Xrotation
		JOINT RightUpLeg
		{
			OFFSET -6.876100 -6.733299 0.301000
			CHANNELS 3 Zrotation Yrotation Xrotation
			JOINT RightLeg
			{
				OFFSET 0.347353 -34.795158 -4.515900
				CHANNELS 3 Zrotation Yrotation Xrotation
				End Site #name: RightFoot
				{
					OFFSET -0.347353 -34.589367 -6.070300
				}
			}
		}
	}
}
MOTION
Frames: 18
Frame Time: 0.041667
0.998851 -0.465087 0.678660 -8.551938 12.520633 -6.952458 -0.000000 -0.000000 -0.000000 1.997359 -0.988842 18.499741 -0.166810 -0.769525 5.353017 0.000000 0.000000 0.000000 -0.131436 2.356818 4.809360 11.055792 -2.847951 3.606113 -1.473665 0.065304 2.375791 -11.157541 -5.478134 4.404392 -98.743318 -63.478584 35.819099 6.458913 -34.384397 -3.643528 -1.558700 3.005315 3.997892 -17.546150 20.515333 -4.511214 71.692093 29.566980 -19.579097 8.283306 77.745745 18.512264 0.000000 -0.000000 -0.000000 34.684064 35.657179 -21.838042 3.283316 -22.072102 -25.062358 -0.000000 0.000000 -0.000000 0.134145 -6.616085 -62.619222 -14.145787 -17.799409 45.372101 
2.771584 -0.969719 1.919668 -11.816653 18.024251 -8.928543 -0.000000 -0.000000 -0.000000 4.665276 -2.517490 7.952332 -1.099661 0.093131 3.625065 0.000000 0.000000 0.000000 -0.973232 2.964345 4.722404 15.141701 -7.878723 4.775423 -3.093316 1.119881 -0.880364 -36.734486 -15.504422 7.111950 153.044448 -66.906672 146.493646 8.152125 -37.806548 -5.118100 -4.191515 3.904939 5.970886 -34.468546 37.737495 -22.908056 86.617316 21.595032 -17.692798 -8.348579 52.542998 12.936766 0.000000 -0.000000 -0.000000 54.479146 31.924087 13.201866 4.274048 -24.267260 -54.917310 -0.000000 -0.000000 -0.000000 -10.987744 -1.871916 -65.535102 -12.508190 -15.740347 57.391945 
4.761365 -1.193979 3.371444 -17.645817 23.348068 -8.977152 -0.000000 -0.000000 -0.000000 10.733359 -0.205138 6.253701 -0.617173 0.628276 1.222285 0.000000 0.000000 0.000000 -0.359294 3.924866 3.913246 12.956448 -9.612654 4.757192 -2.596994 2.989198 -2.724630 -48.455589 -16.128086 7.398258 115.703213 -57.607968 -175.436672 6.595193 -31.468788 -4.786449 -5.598917 5.903401 5.279085 -57.479396 43.831998 -39.526934 82.416259 24.312410 -14.494121 161.572648 69.356832 -172.039249 0.000000 -0.000000 -0.000000 69.333876 34.521066 39.177697 8.733292 -29.561253 -61.932603 -0.000000 0.000000 -0.000000 -14.808121 -7.349709 -78.370307 -14.883337 -17.876011 59.933646 
7.026423 -1.360426 4.974978 -23.047455 28.223367 -10.015152 -0.000000 -0.000000 -0.000000 13.595472 1.317572 6.787534 0.172081 0.689399 -0.188927 0.000000 0.000000 0.000000 0.310360 4.554617 3.196428 10.936176 -10.448696 5.948553 -2.067681 3.813200 -3.424674 -52.879993 -15.424887 6.347828 124.169285 -53.116697 -164.596454 6.446318 -28.273416 -4.706154 -5.791239 7.571146 4.174987 -66.607320 47.257847 -45.500342 85.167654 27.153736 -10.737788 160.807389 49.139324 -167.443702 0.000000 -0.000000 -0.000000 78.397419 33.638345 52.518372 12.530009 -30.014297 -68.473415 -0.000000 0.000000 -0.000000 -16.730924 -12.806338 -92.491294 -14.230224 -17.966611 58.334838 
9.665963 -1.655568 6.753230 -28.112058 33.945214 -12.425305 -0.000000 -0.000000 -0.000000 15.689364 3.196074 7.583883 1.656801 0.614690 -1.103416 0.000000 0.000000 0.000000 1.325398 5.216607 2.649452 8.713056 -11.388404 6.914706 -1.504346 4.572447 -3.690793 -51.951747 -11.723519 2.180345 121.092067 -55.074464 -154.586657 5.704871 -23.687307 -2.665002 -5.403336 8.971822 2.940614 -71.959275 50.221827 -48.704656 86.402710 30.058116 -6.343723 160.272262 32.306735 -164.552673 0.000000 -0.000000 -0.000000 81.613129 31.226434 59.117234 15.356804 -28.917864 -75.986645 -0.000000 0.000000 -0.000000 -16.253288 -16.761133 -112.642643 -13.351614 -18.223475 55.980883 
12.641079 -2.052740 8.664452 -33.908157 39.239589 -16.003342 -0.000000 -0.000000 -0.000000 17.550752 4.387950 6.825385 3.578593 0.859099 -1.402892 0.000000 0.000000 0.000000 2.481353 5.776680 2.229817 7.074109 -11.609383 8.585034 -0.921894 5.421670 -3.961236 -49.190781 -8.550774 -1.756647 104.282097 -58.170009 -139.921492 4.721404 -15.955845 -0.197613 -4.935745 10.303665 1.978457 -80.048749 51.043659 -55.419257 87.066806 32.182663 -2.139892 160.301775 19.755664 -163.332349 0.000000 -0.000000 -0.000000 82.867543 28.708985 63.161327 17.321376 -28.808667 -79.456063 -0.000000 0.000000 -0.000000 -14.787742 -17.496818 -129.682620 -12.947199 -18.401008 53.719817 
15.807741 -2.400156 10.721832 -39.910419 44.718295 -20.493564 -0.000000 -0.000000 -0.000000 19.837958 5.440255 5.591398 5.312747 1.690896 -1.433921 0.000000 0.000000 0.000000 3.816461 6.278322 1.920895 5.498186 -11.652377 10.661511 -0.278907 6.365246 -4.228086 -48.728547 -8.191727 -3.502310 82.420583 -58.780606 -125.513518 4.352828 -9.527231 1.373923 -4.446691 11.462623 0.915480 -84.982987 51.533808 -60.261649 87.759370 33.899753 1.119538 160.704902 11.884384 -163.398712 0.000000 -0.000000 -0.000000 82.873018 26.087492 65.774456 18.763516 -28.460592 -81.000432 -0.000000 0.000000 -0.000000 -14.041201 -16.732045 -140.183260 -12.813396 -18.448757 52.137663 
19.046164 -2.693913 12.900495 -46.757655 49.865072 -26.387963 -0.000000 -0.000000 -0.000000 22.197743 6.723488 4.305894 6.773846 2.704318 -1.382763 0.000000 0.000000 0.000000 5.185300 6.842660 1.705093 4.287948 -11.839603 12.345569 0.370142 7.379882 -4.312668 -48.379635 -8.376776 -4.604981 61.852398 -58.468445 -115.542646 4.545008 -5.027774 2.145348 -3.894658 12.348997 -0.329001 -87.438689 52.369700 -63.698027 87.960455 35.018573 3.136393 161.498997 7.338500 -163.761170 0.000000 -0.000000 -0.000000 82.839646 24.029871 68.103703 20.434309 -27.946416 -82.638650 -0.000000 0.000000 -0.000000 -13.833364 -16.018964 -147.701523 -12.661644 -17.838884 51.649025 
22.277550 -2.936046 15.170643 -55.373599 54.277880 -34.146847 -0.000000 -0.000000 -0.000000 24.906069 8.011786 3.389198 8.030241 3.623988 -1.431155 0.000000 0.000000 0.000000 6.551746 7.452249 1.304832 3.815676 -11.995139 13.848663 0.989279 8.506478 -4.287141 -47.773798 -7.976817 -5.678730 38.839972 -54.984717 -102.803927 4.629555 -0.626638 2.556896 -3.123873 13.080443 -1.035094 -88.862230 53.058068 -66.672382 87.668927 35.925802 4.083775 162.399005 4.429573 -164.255666 0.000000 -0.000000 -0.000000 82.807448 22.178674 70.079494 22.506607 -26.994783 -84.897769 -0.000000 0.000000 -0.000000 -13.661233 -15.360673 -153.588991 -12.456067 -16.894642 51.915033 
25.503313 -3.138273 17.463362 -66.280542 57.807476 -44.364856 -0.000000 -0.000000 -0.000000 27.641860 9.141209 2.595738 9.094082 4.439313 -1.385730 0.000000 0.000000 0.000000 7.761736 7.961889 0.841392 3.930661 -12.319817 14.434044 1.483677 9.468165 -4.262594 -47.282549 -7.537098 -6.647331 19.034971 -48.289828 -92.593540 4.420498 2.764684 2.740190 -2.220222 13.637522 -1.213570 -89.118697 53.649398 -68.565900 87.103746 36.644278 3.909915 163.249735 2.369958 -164.656829 0.000000 -0.000000 -0.000000 81.893102 20.361473 71.287529 24.332321 -26.034689 -86.921132 -0.000000 0.000000 -0.000000 -13.403641 -14.903973 -157.872181 -12.055214 -15.810975 52.512087 
28.724644 -3.273855 19.711700 -77.650079 60.038720 -55.432566 -0.000000 -0.000000 -0.000000 29.871853 10.059877 1.982239 9.965388 5.038631 -1.275480 0.000000 0.000000 0.000000 8.714448 8.313873 0.336725 4.651026 -12.791887 14.198748 1.833541 10.231403 -4.271905 -46.486692 -7.221843 -7.474086 4.753083 -39.796175 -86.077681 4.021490 4.950986 2.753890 -1.654702 13.527612 -1.284996 -88.720588 54.049540 -69.690067 87.048470 37.330228 3.378162 163.984117 1.200362 -164.954825 0.000000 -0.000000 -0.000000 80.279763 17.911726 71.755985 25.813124 -25.284358 -88.499588 -0.000000 0.000000 -0.000000 -12.720699 -14.589349 -160.887745 -11.581852 -14.731023 53.244247 
31.946688 -3.321534 21.836683 -88.137648 60.935094 -65.923598 -0.000000 -0.000000 -0.000000 31.346927 10.472490 1.521018 10.603198 5.451309 -1.165353 0.000000 0.000000 0.000000 9.317430 8.507143 -0.116987 5.630836 -13.521759 13.791478 2.021251 10.766920 -4.258065 -45.450194 -7.293882 -7.924083 -5.386765 -31.603291 -82.868644 3.453923 6.860930 2.698593 -1.151304 13.347266 -1.302561 -87.733083 54.143286 -70.066588 87.381412 37.718899 2.417143 164.634882 0.847332 -165.200150 0.000000 -0.000000 -0.000000 78.248704 14.650399 71.492363 27.016582 -24.703176 -90.240901 -0.000000 0.000000 -0.000000 -11.907978 -14.440494 -163.137234 -10.587918 -13.494662 54.017442 
35.205379 -3.270162 23.753263 -96.961255 60.880160 -74.664116 -0.000000 -0.000000 -0.000000 32.066534 10.580477 1.236057 10.920315 5.655662 -1.069074 0.000000 0.000000 0.000000 9.546552 8.581199 -0.479997 6.907906 -14.414537 13.179119 2.020343 11.088550 -4.285958 -44.425665 -7.472515 -8.050720 -13.353690 -23.720128 -81.146351 2.762610 8.440966 2.612477 -0.675032 13.163178 -1.231330 -86.286343 53.867201 -69.834363 88.056326 38.017301 1.145886 165.083942 0.850899 -165.322038 0.000000 -0.000000 -0.000000 75.949067 10.999510 70.820233 27.883392 -24.282475 -92.263637 -0.000000 0.000000 -0.000000 -11.268339 -14.408186 -164.625900 -9.467664 -12.239850 54.814098 
38.518906 -3.120994 25.400974 -103.683165 60.569593 -81.319418 -0.000000 -0.000000 -0.000000 32.085369 10.513368 0.943462 10.967773 5.665334 -0.952420 0.000000 0.000000 0.000000 9.461908 8.585642 -0.669493 7.960513 -15.092221 12.793088 1.907630 11.269579 -4.272629 -43.407105 -7.895707 -7.926740 -20.805483 -15.902321 -81.240025 2.241923 10.125399 2.676012 -0.248884 13.005432 -1.062367 -84.828748 53.338606 -69.505379 89.033588 38.308909 0.145951 165.442243 1.126723 -165.476882 0.000000 -0.000000 -0.000000 73.795705 7.684407 70.056077 28.449944 -24.069589 -94.397374 -0.000000 0.000000 -0.000000 -11.235028 -14.148909 -165.468772 -8.448496 -11.116337 55.468115 
41.907421 -2.882007 26.747608 -109.972556 59.986719 -87.653587 -0.000000 -0.000000 -0.000000 31.598980 10.366165 0.656738 10.828916 5.526739 -0.716620 0.000000 0.000000 0.000000 9.228117 8.503846 -0.718727 8.109059 -15.835089 12.485676 1.726879 11.334681 -4.234179 -42.780092 -8.280704 -7.730513 -25.709616 -12.267272 -81.803893 1.977485 11.746748 2.804649 0.138376 12.838590 -0.738208 -83.673337 52.372994 -69.262285 90.174592 38.341067 -0.962285 165.757017 1.667757 -165.713427 0.000000 -0.000000 -0.000000 71.688777 4.844260 69.427992 28.675754 -23.892076 -96.614021 -0.000000 0.000000 -0.000000 -11.770995 -14.030364 -165.865875 -7.385689 -9.980322 56.284530 
45.386181 -2.564465 27.771866 -115.525332 59.139251 -93.466747 -0.000000 -0.000000 -0.000000 30.788647 10.207787 0.423445 10.598116 5.323711 -0.410138 0.000000 0.000000 0.000000 8.862454 8.396014 -0.573391 7.697837 -16.603000 12.587092 1.523734 11.309535 -4.187970 -42.428289 -8.289693 -7.664983 -28.832190 -10.335833 -80.755638 1.940998 14.251563 3.023450 0.406000 12.475405 -0.264252 -82.396426 51.339415 -68.948135 91.565612 38.003200 -1.528100 166.012257 2.828902 -166.016217 0.000000 -0.000000 -0.000000 69.669538 2.321978 68.955268 28.624904 -23.852664 -98.699027 -0.000000 0.000000 -0.000000 -12.719187 -13.941573 -165.822004 -6.343186 -8.861935 57.305756 
48.981335 -2.171756 28.472872 -120.970348 57.973409 -98.982109 -0.000000 -0.000000 -0.000000 29.893782 9.968191 0.447237 10.321403 5.042229 -0.062028 0.000000 0.000000 0.000000 8.425415 8.340923 -0.239506 6.730961 -16.993659 13.035217 1.339271 11.215168 -4.123814 -41.960477 -8.013411 -7.739427 -30.838937 -8.426361 -78.568309 1.979159 16.729908 3.289540 0.614465 12.153198 0.381751 -81.424928 50.479242 -68.907313 92.877568 37.310353 -1.597891 166.276353 3.748168 -166.366791 -0.000000 -0.000000 -0.000000 68.064981 0.235670 68.614206 28.490244 -23.851453 -100.652170 -0.000000 0.000000 -0.000000 -13.559826 -13.744441 -165.553644 -5.298588 -7.767894 58.465207 
52.683868 -1.703689 28.902128 -125.765957 56.610528 -103.723511 -0.000000 -0.000000 -0.000000 28.946260 9.681124 0.524764 10.031441 4.723707 0.212202 0.000000 0.000000 0.000000 8.052941 8.219544 0.051957 5.595478 -17.269996 13.397832 1.173564 11.126151 -4.039703 -41.583741 -7.484853 -7.915843 -32.676193 -6.832406 -75.733246 2.160007 19.148029 3.521638 0.854351 11.996677 1.147145 -80.744203 49.852058 -69.097690 93.857470 36.353540 -1.471614 166.732804 3.977572 -166.821014 -0.000000 -0.000000 -0.000000 66.653784 -1.346462 68.324827 28.210771 -23.886968 -102.340881 -0.000000 0.000000 -0.000000 -14.099303 -13.522884 -164.973311 -4.304552 -6.785115 59.575793 
